<svg width="90" height="90" viewBox="0 0 137 99" fill="none" xmlns="http://www.w3.org/2000/svg">
<path d="M4 17.2499C4 13.8286 5.3591 10.5474 7.77832 8.12818C10.1975 5.70896 13.4787 4.34985 16.9 4.34985H120.1C123.521 4.34985 126.802 5.70896 129.222 8.12818C131.641 10.5474 133 13.8286 133 17.2499V81.7499C133 85.1711 131.641 88.4523 129.222 90.8715C126.802 93.2908 123.521 94.6499 120.1 94.6499H16.9C13.4787 94.6499 10.1975 93.2908 7.77832 90.8715C5.3591 88.4523 4 85.1711 4 81.7499V17.2499Z" stroke="currentColor" stroke-width="7.08333" stroke-linecap="round" stroke-linejoin="round"/>
<path d="M68.5 68.85C79.1867 68.85 87.85 60.1867 87.85 49.5C87.85 38.8133 79.1867 30.15 68.5 30.15C57.8133 30.15 49.15 38.8133 49.15 49.5C49.15 60.1867 57.8133 68.85 68.5 68.85Z" stroke="currentColor" stroke-width="7.08333" stroke-linecap="round" stroke-linejoin="round"/>
<path d="M4 30.1499C10.8426 30.1499 17.4049 27.4316 22.2434 22.5932C27.0818 17.7548 29.8 11.1924 29.8 4.34985" stroke="currentColor" stroke-width="7.08333" stroke-linecap="round" stroke-linejoin="round"/>
<path d="M107.2 94.65C107.2 87.8074 109.918 81.2451 114.757 76.4066C119.595 71.5682 126.157 68.85 133 68.85" stroke="currentColor" stroke-width="7.08333" stroke-linecap="round" stroke-linejoin="round"/>
</svg>
