<svg width="173" height="173" viewBox="0 0 173 173" fill="none" xmlns="http://www.w3.org/2000/svg">
<path d="M34.9397 86.6215C34.9397 115.01 57.9902 138.061 86.3787 138.061C114.767 138.061 137.818 115.01 137.818 86.6215C137.818 58.233 114.767 35.1825 86.3787 35.1825C58.2328 34.9399 34.9397 58.233 34.9397 86.6215ZM122.532 83.4673C124.23 103.363 109.672 120.833 89.7756 122.532C69.8794 124.23 52.4095 109.672 50.7111 89.7758C49.0126 69.8796 63.5708 52.4098 83.4671 50.7113C103.121 49.0128 120.59 63.571 122.532 83.4673Z" fill="#1693C3"/>
<path d="M157.229 115.01L165.721 114.767C167.662 114.767 169.846 113.069 170.331 111.128L173.243 97.5401C173.485 95.599 172.272 93.1727 170.574 92.4447L162.567 88.8052C160.868 87.8347 159.412 85.6509 159.17 83.7098C159.17 83.7098 159.17 82.7393 158.927 80.3129C158.927 79.585 158.927 79.585 158.927 79.585C158.927 78.6145 160.14 77.1586 161.839 76.1881L169.118 71.578C170.816 70.6074 171.787 68.1811 171.302 66.24L166.934 53.1376C166.206 51.1965 164.022 49.9833 162.081 49.9833L153.589 50.7112C151.648 50.9539 149.222 49.7407 148.251 48.2849C147.281 46.829 145.582 41.7337 146.553 40.0352L150.435 32.5135C151.405 30.815 150.92 28.146 149.464 26.6902L139.274 17.47C137.818 16.0142 135.149 15.7715 133.45 16.9847L126.414 21.8375C124.715 23.0506 122.289 23.2933 120.59 22.3227C119.135 21.5948 115.01 17.9553 114.767 16.0142L114.525 7.52189C114.525 5.5808 112.826 3.39707 110.885 2.9118L97.54 0.000154328C95.5989 -0.242482 93.1725 0.970701 92.4446 2.66916L88.8051 10.4335C87.8345 12.132 85.6508 13.5878 83.7097 13.8304C83.7097 13.8304 82.7392 13.8304 80.3128 14.0731C79.5849 14.0731 79.5849 14.0731 79.5849 14.0731C78.6143 14.0731 77.1585 12.8599 76.188 11.1614L71.5779 3.88234C70.3647 2.18389 67.9383 1.21334 65.9972 1.69861L52.8948 6.06607C50.9537 6.79398 49.7406 8.97771 49.7406 10.9188L50.4685 19.4111C50.7111 21.3522 49.4979 23.7786 48.0421 24.7491C46.5863 25.7197 41.4909 27.4181 39.7925 26.4476L32.2707 22.5654C30.5723 21.5948 27.9033 22.0801 26.4474 23.5359L17.2272 33.7267C16.0141 35.1825 16.0141 37.8515 16.9846 39.5499L21.8373 46.5864C23.0505 48.2849 23.2932 50.7112 22.3226 52.4097C21.5947 53.8655 17.9551 57.9903 16.0141 58.233L7.27913 58.4756C5.33804 58.4756 3.15431 60.1741 2.66904 62.1152L3.22554e-05 75.4602C-0.242604 77.4013 0.970579 79.8276 2.66904 80.5556L10.4334 84.1951C12.1319 85.1657 13.5877 87.3494 13.8303 89.2905C13.8303 89.2905 13.8303 90.261 14.073 92.6874C14.073 93.4153 14.073 93.4153 14.073 93.4153C14.073 94.3858 12.8598 95.8417 11.1613 96.8122L3.88222 101.422C2.18376 102.393 1.21322 104.819 1.69849 106.76L6.06595 119.863C6.79386 121.804 8.97759 123.017 10.9187 123.017L19.411 122.289C21.3521 122.046 23.7784 123.26 24.749 124.715C25.7195 126.171 27.418 131.267 26.4474 132.965L22.5652 140.487C21.5947 142.185 22.08 144.854 23.5358 146.31L33.7265 155.53C35.1824 156.743 37.8514 156.743 39.5498 155.773L46.5863 150.92C48.2847 149.707 50.7111 149.464 52.4096 150.435C53.8654 151.163 57.9902 154.802 58.2328 156.743L58.4755 165.236C58.4755 167.177 60.1739 169.361 62.115 169.846L75.7027 172.758C77.6438 173 80.0702 171.787 80.7981 170.089L84.4376 162.324C85.4082 160.626 87.5919 159.17 89.533 158.927C89.533 158.927 90.5035 158.927 92.9299 158.685C93.6578 158.685 93.6578 158.685 93.6578 158.685C94.6283 158.685 96.0842 159.898 97.0547 161.596L101.665 168.875C102.635 170.574 105.062 171.544 107.003 171.059L120.105 166.692C122.046 165.964 123.259 163.78 123.259 161.839L122.532 153.347C122.289 151.405 123.502 148.979 124.958 148.009C126.414 147.038 131.509 145.34 133.208 146.31L140.729 150.192C142.428 151.163 145.097 150.678 146.553 149.222L155.773 139.031C156.986 137.575 156.986 134.906 156.015 133.208L151.163 126.171C149.95 124.473 149.707 122.046 150.677 120.348C151.648 119.377 155.288 115.01 157.229 115.01ZM86.6213 145.34C54.3507 145.34 27.9033 118.892 27.9033 86.6215C27.9033 54.3508 54.3507 27.9034 86.6213 27.9034C118.892 27.9034 145.339 54.3508 145.339 86.6215C145.339 118.892 118.892 145.34 86.6213 145.34Z" fill="#1693C3"/>
</svg>
