<svg width="143" height="143" viewBox="0 0 186 143" fill="none" xmlns="http://www.w3.org/2000/svg">
<path d="M9.69668 143H176.083C181.372 143 185.78 138.566 185.78 133.245C185.78 129.254 183.355 125.929 180.05 124.377L165.945 111.74C171.896 110.853 176.303 105.975 176.303 99.9892V11.5287C176.303 5.09922 171.235 0 164.844 0H21.1564C14.7654 0 9.4763 5.09922 9.4763 11.5287V99.9892C9.4763 106.197 14.3246 111.074 20.2749 111.518L5.72986 124.155C3.96682 124.82 2.64455 126.15 1.54265 127.702H1.32227C0.661137 129.254 0 131.25 0 133.023C0 138.566 4.40758 143 9.69668 143ZM13.6635 136.349C12.5616 136.349 11.6801 135.462 11.6801 134.353C11.6801 133.245 12.5616 132.358 13.6635 132.358C14.7654 132.358 15.6469 133.245 15.6469 134.353C15.4265 135.462 14.545 136.349 13.6635 136.349ZM21.1564 136.349C20.0545 136.349 19.173 135.462 19.173 134.353C19.173 133.245 20.0545 132.358 21.1564 132.358C22.2583 132.358 23.1398 133.245 23.1398 134.353C23.1398 135.462 22.2583 136.349 21.1564 136.349ZM29.3104 136.349C28.2085 136.349 27.327 135.462 27.327 134.353C27.327 133.245 28.2085 132.358 29.3104 132.358C30.4123 132.358 31.2938 133.245 31.2938 134.353C31.2938 135.462 30.4123 136.349 29.3104 136.349ZM99.8317 136.349H83.5237C82.4218 136.349 81.5403 135.462 81.5403 134.353C81.5403 133.245 82.4218 132.358 83.5237 132.358H99.8317C100.934 132.358 101.815 133.245 101.815 134.353C101.815 135.462 100.934 136.349 99.8317 136.349ZM93 6.87287C94.1019 6.87287 95.2038 7.75969 95.2038 9.08992C95.2038 10.1985 94.3223 11.307 93 11.307C91.8981 11.307 90.7962 10.4202 90.7962 9.08992C90.7962 7.75969 91.8981 6.87287 93 6.87287ZM20.0545 94.2248V17.293H165.725V94.2248H20.0545ZM23.8009 113.291H27.5474L16.9692 122.16H169.472L159.114 113.291H163.081L175.201 124.155H11.019L23.8009 113.291Z" fill="#1693C3"/>
</svg>
