<svg width="149" height="37" viewBox="0 0 149 37" fill="none" xmlns="http://www.w3.org/2000/svg">
<path d="M27.1582 36L27.4512 24.1055H26.1621L25.0488 28.3242C24.1504 31.7617 22.627 33.7539 20.4785 34.3008C19.9707 34.418 19.4434 34.4766 18.8965 34.4766H11.2207V2.36719H16.2012V0.84375H0.908203V2.36719H5.5957V34.4766H0.908203V36H27.1582ZM48.7207 0.257812C43.9551 0.257812 39.8535 1.82031 36.416 4.94531C32.7441 8.38281 30.9082 12.7969 30.9082 18.1875C30.9082 24.4375 33.0762 29.3008 37.4121 32.7773C40.6543 35.3164 44.3652 36.5859 48.5449 36.5859C53.2715 36.5859 57.334 35.0039 60.7324 31.8398C64.4043 28.3633 66.2402 23.8906 66.2402 18.4219C66.2402 11.9766 63.9941 7.07422 59.502 3.71484C56.377 1.41016 52.7832 0.257812 48.7207 0.257812ZM48.7207 34.9453C41.6895 34.9453 37.9395 30.1406 37.4707 20.5312C37.4316 19.8281 37.4121 19.125 37.4121 18.4219C37.4121 8.30469 40.5566 2.83594 46.8457 2.01562C47.4316 1.9375 47.998 1.89844 48.5449 1.89844C55.9277 1.97656 59.6387 7.40625 59.6777 18.1875C59.6777 27.7578 56.9238 33.2461 51.416 34.6523C50.5566 34.8477 49.6582 34.9453 48.7207 34.9453ZM93.1934 20.1211V21.6445H98.4082V31.3125C96.1035 33.5 93.3496 34.6719 90.1465 34.8281C83.1934 34.8281 79.4238 30.3164 78.8379 21.293C78.7598 20.3555 78.7207 19.3984 78.7207 18.4219C78.7207 8.69531 81.748 3.26563 87.8027 2.13281C88.5449 2.01562 89.3066 1.95703 90.0879 1.95703C94.0723 1.95703 96.9629 3.16797 98.7598 5.58984C99.8926 7.15234 100.869 9.47656 101.689 12.5625H103.271L103.037 0.960938L97.8223 2.07422C95.3613 0.863281 92.7051 0.257812 89.8535 0.257812C85.0488 0.257812 80.9668 1.82031 77.6074 4.94531C74.0137 8.30469 72.2168 12.7188 72.2168 18.1875C72.2168 24.5938 74.4824 29.5156 79.0137 32.9531C82.2168 35.375 85.8496 36.5859 89.9121 36.5859C92.9199 36.5859 95.6348 35.9219 98.0566 34.5938C98.252 34.4766 98.4277 34.3789 98.584 34.3008L103.975 36V21.6445H108.252V20.1211H93.1934ZM130.693 0.257812C125.928 0.257812 121.826 1.82031 118.389 4.94531C114.717 8.38281 112.881 12.7969 112.881 18.1875C112.881 24.4375 115.049 29.3008 119.385 32.7773C122.627 35.3164 126.338 36.5859 130.518 36.5859C135.244 36.5859 139.307 35.0039 142.705 31.8398C146.377 28.3633 148.213 23.8906 148.213 18.4219C148.213 11.9766 145.967 7.07422 141.475 3.71484C138.35 1.41016 134.756 0.257812 130.693 0.257812ZM130.693 34.9453C123.662 34.9453 119.912 30.1406 119.443 20.5312C119.404 19.8281 119.385 19.125 119.385 18.4219C119.385 8.30469 122.529 2.83594 128.818 2.01562C129.404 1.9375 129.971 1.89844 130.518 1.89844C137.9 1.97656 141.611 7.40625 141.65 18.1875C141.65 27.7578 138.896 33.2461 133.389 34.6523C132.529 34.8477 131.631 34.9453 130.693 34.9453Z" fill="#396F91"/>
</svg>
