<svg width="50" height="50" viewBox="0 0 105 105" fill="none" xmlns="http://www.w3.org/2000/svg">
<path d="M103.455 52.25H96.14C95.5652 52.25 95.095 52.7202 95.095 53.295V95.095H9.405V9.405H51.205C51.7797 9.405 52.25 8.93475 52.25 8.36V1.045C52.25 0.47025 51.7797 0 51.205 0H4.18C1.86794 0 0 1.86794 0 4.18V100.32C0 102.632 1.86794 104.5 4.18 104.5H100.32C102.632 104.5 104.5 102.632 104.5 100.32V53.295C104.5 52.7202 104.03 52.25 103.455 52.25Z" fill="currentColor"/>
<path d="M31.8588 55.2413L31.6106 70.7726C31.5975 71.9352 32.538 72.8887 33.7006 72.8887H33.7528L49.1666 72.5099C49.4278 72.4969 49.6891 72.3924 49.872 72.2095L104.199 18.0001C104.604 17.5952 104.604 16.929 104.199 16.5241L87.9622 0.300438C87.7532 0.0914379 87.492 0 87.2177 0C86.9433 0 86.6821 0.1045 86.4731 0.300438L32.1592 54.5098C31.9705 54.7071 31.8632 54.9683 31.8588 55.2413ZM40.1535 58.3241L87.2177 11.3644L93.1219 17.2556L46.0316 64.2414L40.062 64.3851L40.1535 58.3241Z" fill="currentColor"/>
</svg>
