<svg width="38" height="29" viewBox="0 0 38 29" fill="none" xmlns="http://www.w3.org/2000/svg">
<path d="M33.8479 2.45625C35.9937 4.73542 37.1458 7.29167 37.1458 11.4354C37.1458 18.7271 32.0271 25.2625 24.5833 28.4937L22.7229 25.6229C29.6708 21.8646 31.0292 16.9875 31.5708 13.9125C30.4521 14.4917 28.9875 14.6938 27.5521 14.5604C23.7938 14.2125 20.8312 11.1271 20.8312 7.29167C20.8312 5.3578 21.5995 3.50313 22.9669 2.13568C24.3344 0.768227 26.189 0 28.1229 0C30.3583 0 32.4958 1.02083 33.8479 2.45625ZM13.0146 2.45625C15.1604 4.73542 16.3125 7.29167 16.3125 11.4354C16.3125 18.7271 11.1937 25.2625 3.75 28.4937L1.88958 25.6229C8.8375 21.8646 10.1958 16.9875 10.7375 13.9125C9.61875 14.4917 8.15417 14.6938 6.71875 14.5604C2.96042 14.2125 0 11.1271 0 7.29167C0 5.3578 0.768226 3.50313 2.13568 2.13568C3.50313 0.768227 5.3578 0 7.29167 0C9.52708 0 11.6646 1.02083 13.0167 2.45625H13.0146Z" fill="#396F91"/>
</svg>
