<svg width="90" height="90" viewBox="0 0 130 116" fill="none" xmlns="http://www.w3.org/2000/svg">
<path d="M48.2924 61.2251C36.418 74.8709 20.8351 82.8012 3 83.5998V82.2222C3 78.4697 6.1426 75.0784 10.5022 74.2531C23.1938 71.8507 34.1538 65.0687 42.8104 54.8003L42.8166 54.7929L52.4944 43.2373L52.5009 43.2296L52.5073 43.2218C54.6668 40.6076 57.8543 39.1111 61.3889 39.1111L68.8278 39.1111L68.8318 39.1111C70.5003 39.1089 72.1487 39.4762 73.6584 40.1866C75.1681 40.8971 76.5018 41.9331 77.5636 43.2202L77.5707 43.2288L77.5778 43.2373L87.2553 54.7925C87.2554 54.7926 87.2555 54.7927 87.2556 54.7929C95.8579 65.0676 106.809 71.8504 119.498 74.253C123.857 75.0785 127 78.4697 127 82.2222V83.5998C109.165 82.8012 93.582 74.8709 81.7076 61.2251L76.4444 55.1769V63.1944V79.4444V81.4765L78.3315 82.2304L106.345 93.4214C106.347 93.422 106.348 93.4226 106.35 93.4232C110.038 94.9117 112.556 98.7114 112.556 102.628C112.556 108.121 108.121 112.556 102.628 112.556H53.5556V111.944C53.5556 107.607 57.0513 104.111 61.3889 104.111H83.0556C86.7346 104.111 89.6667 101.179 89.6667 97.5C89.6667 93.8209 86.7346 90.8889 83.0556 90.8889H61.3889C55.8046 90.8889 50.449 93.1072 46.5004 97.0559C42.5517 101.005 40.3333 106.36 40.3333 111.944V112.556H27.3722C21.8791 112.556 17.4444 108.121 17.4444 102.628C17.4444 98.7116 19.9617 94.9121 23.6498 93.4234C23.6514 93.4227 23.653 93.4221 23.6547 93.4214L51.6685 82.2304L53.5556 81.4765V79.4444V63.1944V55.1769L48.2924 61.2251ZM65 3C71.3598 3 76.4444 8.08463 76.4444 14.4444C76.4444 20.8043 71.3598 25.8889 65 25.8889C58.6402 25.8889 53.5556 20.8043 53.5556 14.4444C53.5556 8.09439 58.7026 3 65 3Z" stroke="currentColor" stroke-width="6"/>
</svg>
