<svg xmlns="http://www.w3.org/2000/svg" width="186.13mm" height="43.98mm" viewBox="0 0 527.6 124.66">
    <title>Maid-Tech-logo3</title>
    <path
        d="M291.88,287.54a20.31,20.31,0,0,1,17.32,8.93l.16.33h.06v-8.6l.11-.17H317l.16.17v52.1l-.16.16h-7.44l-.11-.16v-8.49h-.06q-6,9.15-18,9.15v-.06l-.11.06q-10.69,0-18.75-8.6a27.07,27.07,0,0,1-6.72-17.75v-.67a26.74,26.74,0,0,1,7.44-18.52A25.34,25.34,0,0,1,291.88,287.54Zm-18.35,26.52v.27a18.94,18.94,0,0,0,7.38,15.27,16.46,16.46,0,0,0,10.31,3.59q12,0,16.54-11.75a20.25,20.25,0,0,0,1.21-6.83v-1.22a20.09,20.09,0,0,0-3-10q-5.18-8-13.84-8-11.69,0-17,11A20.31,20.31,0,0,0,273.53,314.06Z"
        transform="translate(-136.31 -239.73)" fill="#000000"/>
    <path
        d="M338,259.75h.44a5.44,5.44,0,0,1,5.29,5.35v.27a5.5,5.5,0,0,1-5.35,5.41h-.33a5.3,5.3,0,0,1-4.19-2.15,5.21,5.21,0,0,1-1.15-3.15V265a5.37,5.37,0,0,1,1.76-3.86A5.49,5.49,0,0,1,338,259.75Zm-3.58,28.34h7.6l.06.05v52.27l-.06,0h-7.6l-.06,0V288.14Z"
        transform="translate(-136.31 -239.73)" fill="#000000"/>
    <path
        d="M400.11,259.75h7.44l.17.16v80.44l-.17.11h-7.44l-.11-.11v-8.54h-.06Q394,341,382,341v-.06l-.11.06q-10.69,0-18.75-8.6a27.07,27.07,0,0,1-6.72-17.75v-.67a26.74,26.74,0,0,1,7.44-18.52,25.34,25.34,0,0,1,18.63-7.88,20.28,20.28,0,0,1,17.32,8.93l.16.33H400V259.91Zm-36,54.31v.27a18.94,18.94,0,0,0,7.38,15.27,16.46,16.46,0,0,0,10.31,3.59q12,0,16.54-11.75a20.27,20.27,0,0,0,1.22-6.83v-1.22a20.1,20.1,0,0,0-3-10q-5.17-8-13.83-8-11.7,0-17,11A20.31,20.31,0,0,0,364.11,314.06Z"
        transform="translate(-136.31 -239.73)" fill="#000000"/>
    <path
        d="M429.88,329.44H430a5.41,5.41,0,0,1,4.13,1.93,5.31,5.31,0,0,1,1.33,3.36v.33a5.3,5.3,0,0,1-2,4.13,5.39,5.39,0,0,1-3.53,1.27,5.54,5.54,0,0,1-3.81-1.54,5.45,5.45,0,0,1-1.65-3.75v-.44a5.54,5.54,0,0,1,5.46-5.29Z"
        transform="translate(-136.31 -239.73)" fill="#000000"/>
    <path d="M444.65,259.75h50.89l0,.05v7.61l0,.06H474v72.94l-.05,0h-7.61l-.06,0V267.47H444.65l0-.06V259.8Z"
          transform="translate(-136.31 -239.73)" fill="#000000"/>
    <path
        d="M525.26,287.59q11.36,0,19.46,10,5.34,7.88,5.34,15.38v.66c0,1.69-.11,2.54-.33,2.54H507.89q0,2.64,2.2,7.44a18.05,18.05,0,0,0,9.54,8.6,17.78,17.78,0,0,0,5.46,1q7.56,0,13.07-6.56a20,20,0,0,0,2.53-4.24h.11q4.47,1.76,7,3c-.8,2.32-2.61,5-5.4,8.11Q534.8,341,525.14,341q-11.52,0-19.68-10.09a28,28,0,0,1-5.34-16.26v-.5a27.09,27.09,0,0,1,7.88-19.3A23.93,23.93,0,0,1,525.26,287.59Zm-16.6,21h33A18.59,18.59,0,0,0,533.8,298a15.84,15.84,0,0,0-8.77-2.59q-8,0-13.72,7.49A19.42,19.42,0,0,0,508.66,308.6Z"
        transform="translate(-136.31 -239.73)" fill="#000000"/>
    <path
        d="M584.19,287.7h1.43q8.11,0,15.55,6.07a29.41,29.41,0,0,1,4.74,5.45l-6.39,4.3a17.92,17.92,0,0,0-9.71-7.38,14.77,14.77,0,0,0-4.52-.72h-.88q-6.61,0-12.18,5.68a19.54,19.54,0,0,0-5,13.18v.27a19.17,19.17,0,0,0,5.95,13.89,17.1,17.1,0,0,0,11.75,4.8q8,0,13.84-7.11l.82-1.16,6.51,4.19a25.77,25.77,0,0,1-13.56,10.59,26.36,26.36,0,0,1-7.61,1.21,24.81,24.81,0,0,1-17.26-7.06q-8.16-8.37-8.16-19.29V314q0-10.86,8.11-19.24Q575.37,287.7,584.19,287.7Z"
        transform="translate(-136.31 -239.73)" fill="#000000"/>
    <path
        d="M618.32,259.75h7.38l.17.16V294A21,21,0,0,1,641.09,288q16.1,0,21.33,11.63a19.56,19.56,0,0,1,1.49,7.66v33l-.11.16h-7.44l-.17-.16v-33q0-9.1-10.09-11.25a19.1,19.1,0,0,0-4.13-.33h-2.21q-9.25,0-12.9,6.45a15.64,15.64,0,0,0-1,5.63V340.3l-.17.16h-7.38l-.17-.16V259.91Z"
        transform="translate(-136.31 -239.73)" fill="#000000"/>
    <rect width="124.66" height="124.66" fill="#DA4A91"/>
    <path
        d="M178.82,293.73v34.83a6.5,6.5,0,0,1-6.78,6.49c-3,0-5.65-2.35-5.65-6.49v-53a6.27,6.27,0,0,1,5.65-6.49c2.73,0,4.33,1.6,5.93,3.38l20.71,28,21.47-29c3.1-3.86,10.73-2.35,10.73,4.14v53c0,4.14-2.64,6.49-5.65,6.49-3.39,0-6-2.35-6-6.49V293.73L203.58,313.5c-3.39,4.14-7.63,4.14-10.73,0Z"
        transform="translate(-136.31 -239.73)" fill="#ffffff"/>
</svg>
